@startuml
'https://plantuml.com/class-diagram


abstract class Oiseau {
    nom : String
    vole()
    chante()
}


class Pigeon {
    chante()
}

class Canari {
}

class Aigle {
}

class Autruche {
    vole()
}

class CanardPlastique {
    vole()
}


Oiseau <|-- Pigeon
Oiseau <|-- Canari
Oiseau <|-- Aigle
Oiseau <|-- Autruche
Oiseau <|-- CanardPlastique

note left of Oiseau::vole
    System.out.println("Je vole avec mes ailes")
end note



@enduml